# Blender v2.79 (sub 0) OBJ File: ''
# www.blender.org
mtllib shark2_lowres.mtl
o great_white_shark
v -1.418266 -0.202876 0.000244
v -1.338030 -0.126313 -0.003023
v -1.400788 -0.104722 0.001189
v -1.361982 0.003057 -0.003617
v -1.207030 0.077655 -0.039753
v -1.272722 -0.063808 0.000427
v -1.206272 0.000907 -0.007683
v -1.052535 -0.039420 0.000776
v -1.112286 0.020094 -0.026186
v -1.029407 -0.017695 0.001666
v -0.950126 0.031565 -0.040349
v -0.888076 -0.015108 -0.033480
v -0.955396 0.091113 -0.039158
v -0.804809 -0.054263 -0.046128
v -0.696132 -0.085223 -0.071932
v -0.637089 -0.099460 -0.068579
v -0.713287 0.046514 -0.085910
v -0.723719 -0.078052 -0.048814
v -0.509746 -0.130903 -0.041557
v -0.599516 -0.075270 -0.079191
v -0.473918 -0.031721 -0.121359
v -0.350881 -0.144414 -0.087429
v -0.223913 -0.137801 -0.116302
v -1.252259 -0.032721 0.010891
v -1.185884 0.071605 0.036946
v -1.154521 0.074552 0.049114
v -1.111533 -0.000687 0.007263
v -0.963256 0.037043 0.039084
v -0.863960 -0.037133 0.038372
v -0.760629 0.087061 0.073256
v -0.742257 -0.068410 0.061630
v -0.709058 -0.067935 0.064017
v -0.656826 -0.055869 0.083823
v -0.522351 -0.079752 0.094486
v -0.552292 -0.118994 0.057330
v -0.280604 -0.041907 0.155865
v -0.484697 0.040653 0.122438
v -0.353240 -0.166275 0.045866
v -0.197996 -0.145071 0.119555
v -0.210768 -0.004032 0.172329
v -1.448185 0.155730 0.000009
v -1.488151 0.234590 -0.000467
v -1.528208 0.315557 0.001748
v -1.569079 0.405213 0.005530
v -1.528162 0.400486 -0.001674
v -1.407596 0.099007 -0.000591
v -1.440241 0.352661 0.001764
v -1.343011 0.289039 -0.001166
v -1.291955 0.239417 -0.007478
v -1.224759 0.184020 0.000003
v -1.180077 0.137396 0.004990
v -1.147654 0.076333 -0.040013
v -0.920682 0.135892 -0.012173
v -0.818148 0.160711 -0.013951
v -0.430733 0.171826 -0.085064
v -0.580007 0.203172 -0.004419
v -0.374694 0.236594 0.001988
v -1.368238 0.148369 0.017760
v -0.861086 0.137882 0.019072
v -0.900879 0.106174 0.040590
v -0.598809 0.180976 0.026060
v -0.348845 0.171447 0.095719
v -0.267540 -0.010992 -0.166139
v 0.143279 -0.227734 -0.040621
v 0.033465 -0.103246 -0.163908
v -0.168939 0.023990 -0.170253
v 0.195693 -0.053480 -0.201578
v 0.135043 -0.210412 -0.254632
v 0.215094 -0.208408 -0.284095
v 0.066978 -0.106327 -0.180020
v 0.099134 -0.106299 -0.180915
v 0.133805 -0.220870 -0.224113
v 0.113353 -0.218085 -0.074885
v 0.097340 -0.134894 -0.143901
v 0.280880 -0.196901 -0.271145
v 0.288124 -0.228345 -0.240128
v 0.265436 -0.152164 -0.161248
v 0.236299 -0.232871 -0.262830
v 0.321072 -0.137683 -0.169372
v 0.310570 -0.080048 -0.197278
v 0.404943 0.096894 -0.165404
v 0.546819 -0.079370 -0.167148
v 0.537863 -0.199016 -0.101868
v 0.649437 -0.150885 -0.105384
v 0.688100 -0.171744 -0.048383
v 0.725594 -0.173787 -0.001873
v 0.630700 -0.103810 -0.063522
v 0.716622 0.051927 -0.126587
v 0.631414 -0.077448 -0.072609
v 0.664619 -0.127962 -0.038777
v 0.712123 -0.140674 -0.020336
v 0.674974 -0.130142 -0.008075
v 0.693992 -0.058174 -0.130462
v 0.794234 -0.016776 -0.106527
v 0.712652 -0.079344 -0.009110
v 0.850193 -0.050559 -0.000932
v 0.899771 -0.001200 -0.041966
v 0.830308 0.031521 -0.081608
v 0.866733 0.064724 -0.035243
v -0.175368 -0.202850 0.012909
v -0.008763 -0.035146 0.190118
v 0.141131 -0.213711 0.092154
v 0.081088 -0.132778 0.156232
v 0.067636 -0.108646 0.182891
v 0.148291 -0.080072 0.207655
v 0.543205 -0.210149 0.074463
v 0.139819 -0.208246 0.227337
v 0.269691 -0.156346 0.188845
v 0.282321 -0.163590 0.203384
v 0.309460 -0.147167 0.166524
v 0.313884 -0.087041 0.191900
v 0.574834 0.106845 0.106635
v 0.543890 -0.071513 0.171735
v 0.586933 -0.172372 0.116232
v 0.652423 -0.181912 0.052422
v 0.643815 -0.082277 0.140525
v 0.631186 -0.103720 0.103583
v 0.630124 -0.071010 0.073397
v 0.705144 0.015134 0.139925
v 0.705680 0.067001 0.123018
v 0.663580 -0.126425 0.046741
v 0.635965 -0.118942 0.070356
v 0.626359 -0.125918 0.044838
v 0.659348 -0.130949 0.019772
v 0.622008 -0.105391 0.079569
v 0.674628 -0.129113 0.016064
v 0.689495 -0.069127 0.037357
v 0.756422 -0.045732 0.113124
v 0.861333 0.038014 0.079524
v 0.898811 0.048748 0.040599
v 0.920382 0.016585 0.028472
v -0.132495 0.196805 -0.121823
v -0.261182 0.251871 -0.023145
v -0.222719 0.320853 -0.000636
v 0.005659 0.269311 -0.026276
v -0.120062 0.281686 -0.034111
v 0.003046 0.287561 0.005111
v -0.041187 0.375320 -0.001108
v -0.208578 0.587473 0.000511
v -0.083482 0.452704 -0.000364
v -0.134468 0.539185 -0.002693
v 0.128602 0.147584 -0.139382
v 0.363608 0.202243 -0.005231
v 0.262164 0.214281 -0.027062
v 0.570594 0.145401 -0.037862
v -0.074603 0.205636 0.122683
v -0.262916 0.255153 0.020018
v -0.112040 0.281786 0.037099
v 0.280096 0.200969 0.096345
v 0.300888 -0.008318 0.198849
v 0.134959 0.250695 0.038725
v 0.452596 0.155031 0.085469
v 0.537878 0.148060 0.030467
v 0.133513 -0.201517 0.242794
v 0.171324 -0.192532 0.258074
v 0.228237 -0.223599 0.238296
v 0.234158 -0.228995 0.243670
v 0.242863 -0.159337 0.264907
vn -0.0600 0.0203 -0.9980
vn -0.0732 -0.0181 -0.9972
vn -0.0642 -0.2762 -0.9590
vn -0.5261 -0.7276 -0.4402
vn -0.0294 -0.3856 -0.9222
vn -0.1891 0.0029 -0.9820
vn -0.2354 -0.9717 0.0204
vn -0.2825 -0.9584 -0.0398
vn -0.2413 -0.1334 -0.9612
vn 0.0655 -0.4844 -0.8724
vn 0.0239 -0.7302 -0.6829
vn -0.1860 -0.1276 -0.9742
vn -0.1944 -0.1561 -0.9684
vn -0.1814 -0.4131 -0.8924
vn -0.1493 -0.4310 -0.8899
vn -0.0126 -0.3856 -0.9226
vn -0.2127 -0.4130 -0.8855
vn 0.6312 -0.6429 0.4339
vn 0.6229 -0.5381 0.5679
vn -0.3052 -0.5901 0.7474
vn -0.1399 -0.5412 0.8292
vn 0.4913 -0.5506 0.6749
vn -0.2255 -0.1633 0.9605
vn -0.0297 -0.8169 0.5760
vn -0.1855 -0.0615 0.9807
vn -0.1565 -0.4370 0.8857
vn -0.2413 -0.3318 0.9120
vn 0.3066 0.5057 -0.8064
vn 0.0098 0.5966 -0.8025
vn 0.1096 -0.0013 -0.9940
vn -0.1581 0.5967 -0.7868
vn -0.1249 0.8246 -0.5518
vn -0.1426 0.3278 -0.9339
vn -0.2214 0.8452 -0.4863
vn 0.0277 -0.0036 0.9996
vn -0.2566 -0.1553 0.9540
vn 0.0860 0.4291 0.8991
vn -0.3611 0.4330 0.8259
vn -0.0482 0.6016 0.7974
vn -0.0373 0.5640 0.8249
vn 0.0676 0.2135 0.9746
vn -0.1762 0.6673 0.7236
vn -0.1341 0.7960 0.5902
vn -0.1415 -0.9429 -0.3016
vn -0.1069 -0.9775 -0.1819
vn -0.1044 -0.7659 -0.6345
vn 0.2508 -0.5021 -0.8276
vn 0.2729 -0.6516 0.7078
vn -0.0821 -0.6456 -0.7592
vn -0.1438 -0.6481 -0.7479
vn -0.3382 0.4979 -0.7986
vn 0.1432 0.4792 -0.8660
vn -0.0260 -0.3226 -0.9462
vn -0.3146 0.4739 -0.8225
vn 0.1312 -0.7942 0.5934
vn -0.0569 -0.6361 -0.7695
vn -0.0690 0.0775 -0.9946
vn -0.0032 -0.7922 -0.6103
vn 0.0559 -0.6431 -0.7637
vn 0.1254 0.1107 -0.9859
vn 0.7026 0.6082 -0.3695
vn 0.7902 0.5012 -0.3526
vn 0.2380 -0.0147 -0.9712
vn 0.4010 -0.7893 -0.4650
vn 0.5854 0.3671 -0.7228
vn 0.5149 0.0567 -0.8554
vn 0.2121 -0.9567 -0.1995
vn 0.4304 -0.7682 -0.4739
vn 0.2440 -0.0160 -0.9696
vn 0.0695 0.1408 -0.9876
vn -0.1296 -0.8464 0.5165
vn -0.1040 -0.4102 0.9061
vn -0.1019 -0.4019 0.9100
vn -0.0464 0.2183 0.9748
vn 0.0134 -0.9944 0.1052
vn -0.0751 -0.6526 0.7539
vn 0.8290 -0.2682 0.4908
vn -0.0707 -0.6509 0.7559
vn -0.6442 -0.6999 0.3085
vn -0.0453 0.2579 0.9651
vn 0.1844 0.3086 0.9331
vn 0.0920 -0.0725 0.9931
vn 0.8423 -0.5384 0.0246
vn 0.2362 -0.3892 0.8904
vn -0.0125 0.3448 0.9386
vn 0.0211 0.3097 0.9506
vn 0.0470 -0.7648 0.6425
vn 0.1079 -0.4436 0.8897
vn 0.5982 -0.0383 0.8004
vn 0.4788 0.8505 -0.2178
vn -0.0492 0.1115 0.9925
vn 0.8465 0.3383 -0.4112
vn 0.2551 -0.9437 -0.2104
vn 0.2858 -0.1741 0.9423
vn 0.3711 -0.0942 0.9238
vn 0.5110 -0.7317 0.4511
vn 0.6806 0.1897 0.7076
vn 0.5323 -0.3593 0.7665
vn 0.1896 -0.9620 0.1966
vn 0.2924 0.8118 0.5054
vn 0.9357 -0.2631 -0.2350
vn 0.6960 -0.0225 0.7177
vn 0.2773 -0.1687 0.9459
vn -0.1408 0.7750 -0.6161
vn -0.1515 0.3820 -0.9117
vn 0.8837 0.4328 -0.1781
vn 0.1131 0.7059 -0.6992
vn 0.1090 0.7924 -0.6002
vn -0.0318 0.3137 -0.9490
vn 0.6088 0.3396 -0.7169
vn -0.1712 0.3893 0.9051
vn 0.2536 0.1949 0.9475
vn -0.1559 0.7031 0.6938
vn -0.2041 0.7636 0.6126
vn 0.0978 0.0844 0.9916
vn 0.3016 0.1558 0.9406
vn 0.2554 0.8502 0.4603
vn -0.2242 0.7702 0.5971
vn -0.0259 0.2677 -0.9632
vn -0.2029 0.1620 0.9657
vn 0.1114 0.4460 0.8881
vn 0.0690 -0.8467 -0.5276
vn -0.4377 -0.8902 -0.1260
vn -0.2816 -0.9595 -0.0026
vn -0.2422 -0.9701 0.0126
vn 0.0014 0.9978 -0.0663
vn -0.2145 0.9114 0.3511
vn -0.1708 0.8436 0.5090
vn 0.1680 -0.9835 -0.0672
vn 0.7763 0.5970 -0.2026
vn 0.2074 0.9689 -0.1352
vn 0.6330 -0.5867 0.5051
vn -0.0237 -0.6264 -0.7792
vn -0.0273 -0.0966 -0.9949
vn -0.1044 0.0818 0.9912
vn -0.1564 -0.3442 -0.9258
vn -0.3176 -0.3973 -0.8610
vn -0.2351 -0.7756 -0.5858
vn -0.1497 -0.4313 -0.8897
vn -0.0333 -0.3577 -0.9332
vn -0.1777 -0.1507 0.9725
vn -0.0564 -0.5161 0.8547
vn -0.2856 -0.4513 0.8454
vn 0.0079 -0.9961 0.0883
vn -0.1620 -0.1408 0.9767
vn 0.2025 -0.9774 0.0613
vn -0.1221 -0.1729 0.9773
vn -0.0947 0.0292 -0.9951
vn -0.1693 -0.6064 0.7769
vn -0.4174 -0.8383 0.3507
vn -0.1508 -0.4578 0.8762
vn -0.1852 -0.0620 0.9807
vn -0.1810 -0.5998 0.7794
vn -0.1592 -0.8077 0.5677
vn -0.1904 -0.0744 0.9789
vn -0.1352 -0.0398 -0.9900
vn -0.1777 -0.0395 -0.9833
vn -0.0021 -0.0071 -1.0000
vn -0.0522 0.5448 -0.8369
vn -0.0129 0.0013 -0.9999
vn -0.0019 -0.0077 -1.0000
vn 0.4504 0.3961 -0.8002
vn -0.1201 0.6032 0.7885
vn -0.1764 0.4037 -0.8977
vn -0.0811 0.4770 -0.8752
vn -0.1185 0.8317 -0.5425
vn -0.1334 0.2889 -0.9480
vn -0.3494 -0.1979 0.9158
vn -0.2287 -0.1738 0.9579
vn -0.2250 -0.1082 0.9683
vn 0.0894 0.1170 0.9891
vn 0.2108 0.0931 0.9731
vn 0.0770 0.1787 0.9809
vn -0.1583 0.8965 0.4139
vn -0.1155 0.3126 0.9429
vn -0.1531 0.8414 0.5183
vn -0.1596 -0.9486 -0.2733
vn -0.1041 -0.3620 -0.9264
vn -0.1150 -0.3974 -0.9104
vn -0.9551 -0.2103 -0.2088
vn 0.9314 -0.0065 -0.3640
vn 0.9436 -0.0954 -0.3171
vn -0.9618 -0.2447 -0.1229
vn 0.0056 -0.6809 0.7324
vn -0.3931 0.3934 -0.8311
vn 0.0769 0.5187 -0.8515
vn -0.0163 -0.7909 -0.6118
vn -0.2184 -0.7326 0.6447
vn -0.0965 -0.9404 -0.3262
vn 0.2746 -0.3718 -0.8868
vn 0.0624 -0.9959 -0.0648
vn 0.2581 -0.9334 -0.2491
vn 0.1331 -0.4824 -0.8658
vn 0.3265 -0.7944 -0.5122
vn 0.1400 0.1224 -0.9825
vn 0.7773 -0.0340 -0.6282
vn 0.2662 0.9637 -0.0213
vn 0.7785 -0.2146 0.5898
vn 0.7637 -0.5725 -0.2983
vn 0.5187 -0.0955 0.8496
vn 0.3986 0.5650 0.7224
vn 0.3893 0.1758 -0.9042
vn 0.1251 -0.9739 -0.1891
vn 0.8214 0.4477 -0.3534
vn 0.3879 0.5776 -0.7183
vn 0.0245 -0.9565 -0.2907
vn -0.1173 -0.2060 0.9715
vn -0.1226 -0.9236 0.3632
vn -0.0601 -0.9928 0.1039
vn 0.3814 -0.0186 0.9242
vn -0.0297 -0.9047 -0.4250
vn -0.1869 -0.2867 0.9396
vn -0.0370 -0.8993 -0.4358
vn 0.8037 -0.2631 0.5337
vn 0.2896 -0.9234 0.2521
vn 0.3070 -0.8433 0.4412
vn 0.5717 0.7740 -0.2723
vn 0.1292 -0.3936 0.9101
vn 0.2465 -0.1055 0.9634
vn 0.0623 -0.9678 0.2438
vn 0.1390 -0.9742 0.1780
vn 0.3075 0.2920 0.9056
vn 0.9299 0.0734 -0.3605
vn 0.0860 0.2660 -0.9601
vn 0.0343 -0.7821 0.6222
vn -0.0133 0.2724 -0.9621
vn 0.0695 0.7964 0.6008
vn -0.2034 0.7178 -0.6658
vn 0.0922 0.8042 -0.5872
vn 0.1432 0.6777 -0.7213
vn -0.3030 0.0202 -0.9528
vn 0.0373 0.1231 -0.9917
vn 0.1890 0.9059 -0.3789
vn 0.1667 0.8300 -0.5322
vn -0.1311 0.3082 0.9422
vn -0.3186 0.0128 0.9478
vn 0.1351 0.7689 0.6250
vn 0.2397 0.9374 0.2528
vn 0.0721 0.4445 0.8929
vn 0.2412 0.9475 0.2102
vn -0.0495 0.2568 0.9652
vn 0.1986 0.1781 0.9638
vn 0.2930 0.8932 0.3411
vn 0.2383 0.9026 0.3585
vn 0.2265 0.8984 0.3763
vn -0.1977 -0.0631 -0.9782
vn 0.0029 0.0203 -0.9998
vn -0.1441 0.2951 -0.9445
vn 0.1860 0.8135 -0.5510
vn 0.2320 0.8354 -0.4983
vn -0.2553 -0.1515 0.9549
vn 0.0408 -0.0586 0.9974
vn -0.1197 0.3166 0.9410
vn -0.2378 -0.9713 0.0095
vn -0.2301 -0.9730 0.0182
vn -0.0513 -0.9595 -0.2769
vn 0.2048 0.4393 0.8747
vn 0.6544 0.7558 -0.0228
vn 0.6960 -0.7177 -0.0224
vn -0.8608 0.5037 -0.0729
vn 0.3449 0.8236 -0.4502
vn 0.1615 0.9620 -0.2201
vn 0.2776 0.9559 0.0957
vn 0.2611 0.9613 0.0876
vn 0.2618 0.9608 0.0917
vn -0.2061 -0.9782 -0.0268
vn -0.1505 0.9853 -0.0810
vn -0.1226 -0.3090 -0.9431
vn 0.2274 -0.2031 -0.9524
vn 0.0485 0.0044 -0.9988
vn -0.0662 0.0022 0.9978
vn 0.1864 -0.2375 0.9533
vn -0.2561 -0.9658 0.0413
vn -0.2211 -0.0888 0.9712
vn -0.1803 0.1005 -0.9785
vn -0.0409 0.5786 -0.8146
vn -0.0919 0.6356 0.7666
vn -0.3051 -0.7616 -0.5718
vn 0.3618 -0.6111 -0.7040
vn -0.2872 -0.8539 -0.4340
vn 0.1807 -0.4815 -0.8576
vn 0.1162 -0.4156 -0.9021
vn 0.4230 0.4048 -0.8107
vn 0.6177 0.2413 0.7485
vn 0.8195 -0.4671 0.3319
vn 0.2464 0.1310 -0.9603
vn 0.0533 0.8184 0.5722
vn 0.2640 0.9370 0.2288
vn 0.0455 -0.6661 -0.7445
vn -0.1590 0.4463 0.8806
vn 0.3457 -0.6848 -0.6415
vn -0.8350 -0.5455 0.0725
vn -0.4178 0.2991 0.8579
vn -0.2084 -0.7676 0.6061
vn 0.8361 -0.0841 0.5421
vn -0.0027 -0.5913 -0.8065
vn -0.2499 0.3530 0.9016
vn 0.1622 -0.6013 -0.7824
vn -0.7710 -0.6357 -0.0378
vn -0.3754 0.2995 0.8771
vn -0.7238 -0.1169 0.6801
vn 0.0481 -0.9085 0.4151
vn 0.0985 -0.3998 0.9113
vn 0.4083 -0.3073 -0.8596
vn 0.7976 -0.3675 0.4783
vn 0.5616 0.0159 0.8273
vn -0.0271 -0.9616 0.2731
vn 0.1516 -0.9784 0.1403
vn 0.8030 -0.5948 0.0369
vn 0.6093 -0.1240 -0.7832
vn 0.6545 0.0318 0.7553
vn 0.8752 -0.3393 0.3449
usemtl _Sharkgreatwhiteshark
s off
f 3//1 2//1 1//1
f 4//2 2//2 3//2
f 11//3 9//3 52//3
f 27//4 9//4 8//4
f 5//5 7//5 4//5
f 11//6 13//6 17//6
f 16//7 18//7 15//7
f 14//8 15//8 18//8
f 12//9 17//9 15//9
f 20//10 19//10 16//10
f 15//11 21//11 20//11
f 17//12 21//12 15//12
f 17//13 63//13 21//13
f 22//14 63//14 23//14
f 20//15 21//15 22//15
f 52//16 7//16 5//16
f 10//17 11//17 12//17
f 2//18 24//18 1//18
f 7//19 25//19 24//19
f 26//20 27//20 8//20
f 27//21 26//21 7//21
f 6//22 24//22 2//22
f 33//23 29//23 31//23
f 32//24 33//24 31//24
f 37//25 33//25 36//25
f 36//26 34//26 39//26
f 29//27 28//27 10//27
f 45//28 47//28 48//28
f 5//29 51//29 52//29
f 49//30 50//30 51//30
f 54//31 13//31 53//31
f 56//32 55//32 54//32
f 55//33 132//33 17//33
f 133//34 55//34 57//34
f 48//35 47//35 44//35
f 44//36 42//36 58//36
f 25//37 51//37 58//37
f 26//38 51//38 25//38
f 60//39 59//39 26//39
f 59//40 51//40 26//40
f 49//41 58//41 50//41
f 62//42 61//42 30//42
f 61//43 62//43 57//43
f 22//44 73//44 100//44
f 73//45 64//45 100//45
f 22//46 23//46 73//46
f 78//47 69//47 75//47
f 77//48 76//48 79//48
f 73//49 65//49 74//49
f 73//50 74//50 77//50
f 65//51 67//51 70//51
f 80//52 69//52 67//52
f 70//53 67//53 71//53
f 71//54 69//54 68//54
f 77//55 72//55 78//55
f 23//56 65//56 73//56
f 63//57 66//57 67//57
f 83//58 73//58 77//58
f 79//59 83//59 77//59
f 81//60 82//60 80//60
f 84//61 87//61 90//61
f 85//62 84//62 90//62
f 93//63 88//63 94//63
f 97//64 96//64 94//64
f 98//65 99//65 97//65
f 98//66 97//66 94//66
f 96//67 95//67 93//67
f 94//68 96//68 93//68
f 88//69 93//69 82//69
f 81//70 80//70 67//70
f 102//71 39//71 38//71
f 101//72 36//72 103//72
f 36//73 39//73 103//73
f 150//74 101//74 105//74
f 106//75 102//75 64//75
f 110//76 103//76 102//76
f 111//77 109//77 110//77
f 39//78 102//78 103//78
f 101//79 103//79 104//79
f 40//80 101//80 146//80
f 112//81 150//81 113//81
f 113//82 150//82 111//82
f 117//83 116//83 114//83
f 116//84 113//84 114//84
f 113//85 120//85 112//85
f 120//86 113//86 119//86
f 106//87 114//87 110//87
f 114//88 113//88 111//88
f 86//89 121//89 115//89
f 124//90 121//90 86//90
f 121//91 123//91 115//91
f 123//92 122//92 115//92
f 118//93 128//93 116//93
f 128//94 119//94 116//94
f 119//95 128//95 129//95
f 96//96 131//96 128//96
f 130//97 129//97 131//97
f 131//98 129//98 128//98
f 95//99 96//99 128//99
f 120//100 129//100 130//100
f 118//101 116//101 125//101
f 115//102 122//102 114//102
f 119//103 113//103 116//103
f 132//104 55//104 133//104
f 133//105 134//105 136//105
f 135//106 138//106 137//106
f 136//107 135//107 132//107
f 144//108 142//108 132//108
f 142//109 81//109 66//109
f 141//110 140//110 138//110
f 148//111 134//111 147//111
f 138//112 148//112 137//112
f 146//113 148//113 62//113
f 148//114 147//114 62//114
f 141//115 139//115 140//115
f 140//116 148//116 138//116
f 152//117 149//117 112//117
f 62//118 147//118 57//118
f 81//119 67//119 66//119
f 30//120 60//120 28//120
f 149//121 150//121 112//121
f 9//122 27//122 7//122
f 14//123 29//123 12//123
f 18//124 29//124 14//124
f 19//125 35//125 16//125
f 59//126 53//126 51//126
f 59//127 54//127 53//127
f 61//128 56//128 54//128
f 86//129 106//129 83//129
f 130//130 131//130 99//130
f 151//131 144//131 135//131
f 7//132 24//132 6//132
f 10//133 9//133 11//133
f 6//134 4//134 7//134
f 3//135 24//135 4//135
f 12//136 11//136 17//136
f 14//137 12//137 15//137
f 19//138 20//138 22//138
f 22//139 21//139 63//139
f 15//140 20//140 16//140
f 24//141 58//141 4//141
f 26//142 10//142 28//142
f 26//143 25//143 7//143
f 31//144 18//144 32//144
f 24//145 25//145 58//145
f 33//146 32//146 18//146
f 29//147 30//147 28//147
f 49//148 46//148 48//148
f 35//149 34//149 33//149
f 18//150 35//150 33//150
f 34//151 36//151 33//151
f 33//152 37//152 30//152
f 35//153 39//153 34//153
f 38//154 39//154 35//154
f 40//155 37//155 36//155
f 42//156 43//156 45//156
f 43//157 44//157 45//157
f 41//158 42//158 48//158
f 13//159 51//159 53//159
f 46//160 41//160 48//160
f 45//161 48//161 42//161
f 49//162 51//162 5//162
f 59//163 30//163 61//163
f 17//164 54//164 55//164
f 17//165 13//165 54//165
f 57//166 55//166 56//166
f 17//167 132//167 63//167
f 44//168 43//168 42//168
f 58//169 41//169 46//169
f 58//170 42//170 41//170
f 58//171 48//171 44//171
f 49//172 48//172 58//172
f 51//173 50//173 58//173
f 61//174 54//174 59//174
f 37//175 62//175 30//175
f 57//176 56//176 61//176
f 19//177 22//177 100//177
f 65//178 63//178 67//178
f 23//179 63//179 65//179
f 71//180 72//180 74//180
f 79//181 75//181 80//181
f 79//182 76//182 75//182
f 71//183 68//183 72//183
f 77//184 74//184 72//184
f 71//185 67//185 69//185
f 80//186 75//186 69//186
f 74//187 70//187 71//187
f 77//188 78//188 76//188
f 68//189 69//189 72//189
f 84//190 82//190 93//190
f 64//191 83//191 106//191
f 83//192 85//192 86//192
f 79//193 82//193 83//193
f 84//194 85//194 83//194
f 82//195 81//195 88//195
f 85//196 91//196 86//196
f 90//197 92//197 91//197
f 93//198 87//198 84//198
f 92//199 90//199 95//199
f 118//200 121//200 127//200
f 91//201 92//201 86//201
f 94//202 88//202 98//202
f 89//203 93//203 95//203
f 99//204 131//204 97//204
f 88//205 99//205 98//205
f 73//206 83//206 64//206
f 101//207 40//207 36//207
f 102//208 38//208 100//208
f 64//209 102//209 100//209
f 111//210 150//210 109//210
f 108//211 110//211 109//211
f 104//212 105//212 101//212
f 108//213 103//213 110//213
f 109//214 158//214 157//214
f 106//215 86//215 115//215
f 106//216 115//216 114//216
f 117//217 122//217 125//217
f 114//218 111//218 110//218
f 86//219 126//219 124//219
f 127//220 95//220 128//220
f 118//221 127//221 128//221
f 129//222 120//222 119//222
f 117//223 125//223 116//223
f 136//224 138//224 135//224
f 102//225 106//225 110//225
f 66//226 132//226 142//226
f 146//227 151//227 137//227
f 132//228 133//228 136//228
f 142//229 144//229 81//229
f 132//230 135//230 144//230
f 134//231 139//231 136//231
f 136//232 139//232 141//232
f 143//233 145//233 144//233
f 144//234 145//234 81//234
f 40//235 146//235 62//235
f 148//236 139//236 134//236
f 146//237 137//237 148//237
f 143//238 152//238 153//238
f 149//239 146//239 150//239
f 149//240 143//240 151//240
f 101//241 150//241 146//241
f 148//242 140//242 139//242
f 152//243 112//243 153//243
f 120//244 130//244 153//244
f 112//245 120//245 153//245
f 4//246 46//246 5//246
f 11//247 52//247 13//247
f 63//248 132//248 66//248
f 81//249 145//249 88//249
f 88//250 145//250 99//250
f 58//251 46//251 4//251
f 28//252 60//252 26//252
f 40//253 62//253 37//253
f 16//254 35//254 18//254
f 19//255 38//255 35//255
f 12//256 29//256 10//256
f 44//257 47//257 45//257
f 92//258 126//258 86//258
f 97//259 131//259 96//259
f 133//260 147//260 134//260
f 137//261 151//261 135//261
f 151//262 143//262 144//262
f 143//263 153//263 145//263
f 153//264 99//264 145//264
f 153//265 130//265 99//265
f 19//266 100//266 38//266
f 57//267 147//267 133//267
f 52//268 9//268 7//268
f 10//269 8//269 9//269
f 6//270 2//270 4//270
f 3//271 1//271 24//271
f 26//272 8//272 10//272
f 31//273 29//273 18//273
f 29//274 33//274 30//274
f 49//275 5//275 46//275
f 13//276 52//276 51//276
f 59//277 60//277 30//277
f 78//278 72//278 69//278
f 75//279 76//279 78//279
f 74//280 65//280 70//280
f 84//281 83//281 82//281
f 79//282 80//282 82//282
f 85//283 90//283 91//283
f 93//284 89//284 87//284
f 117//285 114//285 122//285
f 136//286 141//286 138//286
f 146//287 149//287 151//287
f 143//288 149//288 152//288
f 108//289 107//289 103//289
f 105//290 158//290 150//290
f 109//291 156//291 108//291
f 103//292 154//292 104//292
f 105//293 154//293 155//293
f 155//294 107//294 156//294
f 109//295 150//295 158//295
f 108//296 156//296 107//296
f 105//297 155//297 158//297
f 109//298 157//298 156//298
f 103//299 107//299 154//299
f 105//300 104//300 154//300
f 157//301 158//301 156//301
f 155//302 154//302 107//302
f 156//303 158//303 155//303
f 87//304 89//304 90//304
f 95//305 127//305 126//305
f 118//306 125//306 122//306
f 122//307 123//307 121//307
f 121//308 124//308 126//308
f 126//309 92//309 95//309
f 89//310 95//310 90//310
f 118//311 122//311 121//311
f 126//312 127//312 121//312
