# Blender v2.79 (sub 0) OBJ File: ''
# www.blender.org
mtllib simple_sphere.mtl
o Icosphere
v -0.012394 -0.351788 -0.012183
v 0.252193 -0.172658 0.175056
v -0.097864 -0.164502 0.295666
v -0.320336 -0.146428 0.000144
v -0.107771 -0.143416 -0.303107
v 0.246070 -0.159626 -0.195002
v 0.107771 0.143416 0.303107
v -0.246069 0.159626 0.195002
v -0.252193 0.172658 -0.175056
v 0.097864 0.164502 -0.295666
v 0.320336 0.146428 -0.000144
v 0.012394 0.351788 0.012183
v -0.085918 -0.237352 0.245640
v -0.064807 -0.303467 0.166626
v -0.037919 -0.342527 0.072757
v 0.060373 -0.344818 0.038891
v 0.140949 -0.308261 0.095734
v 0.208960 -0.244222 0.144042
v 0.184961 -0.191633 0.230483
v 0.090712 -0.198177 0.276683
v -0.011624 -0.187053 0.298216
v 0.278096 -0.182946 -0.115110
v 0.292870 -0.195311 -0.011724
v 0.281534 -0.190264 0.092708
v 0.058653 -0.341158 -0.065017
v 0.137350 -0.300601 -0.121780
v 0.203802 -0.233244 -0.167685
v -0.273323 -0.222126 -0.003300
v -0.195574 -0.292844 -0.007076
v -0.100388 -0.337453 -0.010222
v -0.172387 -0.179688 0.249102
v -0.245813 -0.182760 0.173872
v -0.297323 -0.169538 0.083141
v -0.094264 -0.219590 -0.258749
v -0.070631 -0.291074 -0.185321
v -0.040701 -0.336607 -0.095372
v -0.300105 -0.163617 -0.084988
v -0.251636 -0.170366 -0.178076
v -0.180732 -0.161926 -0.255289
v -0.021689 -0.165632 -0.310084
v 0.081290 -0.178124 -0.292781
v 0.177021 -0.174735 -0.249374
v 0.340657 0.074867 0.049033
v 0.336525 -0.015417 0.102811
v 0.302389 -0.104326 0.147423
v 0.297231 -0.093349 -0.164305
v 0.332926 -0.007757 -0.114703
v 0.338938 0.078526 -0.054876
v 0.063305 0.074620 0.338350
v 0.005823 -0.012394 0.351950
v -0.052177 -0.098302 0.334172
v 0.242703 -0.105173 0.232574
v 0.211583 -0.017188 0.281059
v 0.161598 0.072330 0.304485
v -0.297231 0.093349 0.164305
v -0.332925 0.007757 0.114704
v -0.338938 -0.078526 0.054876
v -0.151533 -0.093751 0.303817
v -0.202160 -0.002866 0.288409
v -0.234763 0.088275 0.247286
v -0.242703 0.105173 -0.232574
v -0.211583 0.017188 -0.281059
v -0.161598 -0.072330 -0.304485
v -0.340657 -0.074867 -0.049033
v -0.336525 0.015417 -0.102811
v -0.302389 0.104326 -0.147423
v 0.151533 0.093751 -0.303817
v 0.202160 0.002866 -0.288409
v 0.234763 -0.088275 -0.247286
v -0.063305 -0.074620 -0.338350
v -0.005823 0.012394 -0.351950
v 0.052177 0.098302 -0.334172
v 0.300105 0.163617 0.084988
v 0.251636 0.170366 0.178076
v 0.180732 0.161926 0.255289
v 0.021690 0.165632 0.310084
v -0.081290 0.178124 0.292781
v -0.177021 0.174735 0.249374
v -0.278096 0.182946 0.115110
v -0.292870 0.195311 0.011724
v -0.281534 0.190264 -0.092708
v -0.184961 0.191633 -0.230483
v -0.090712 0.198177 -0.276683
v 0.011625 0.187053 -0.298216
v 0.172386 0.179688 -0.249102
v 0.245813 0.182760 -0.173872
v 0.297323 0.169538 -0.083141
v 0.040701 0.336607 0.095372
v 0.070631 0.291074 0.185321
v 0.094264 0.219590 0.258750
v 0.273323 0.222126 0.003300
v 0.195574 0.292844 0.007076
v 0.100388 0.337453 0.010222
v -0.058653 0.341158 0.065017
v -0.137350 0.300601 0.121780
v -0.203802 0.233244 0.167685
v -0.060373 0.344818 -0.038891
v -0.140949 0.308261 -0.095734
v -0.208960 0.244222 -0.144042
v 0.037919 0.342528 -0.072757
v 0.064808 0.303467 -0.166626
v 0.085918 0.237352 -0.245640
v 0.136890 0.313499 -0.083880
v 0.232050 0.250040 -0.087690
v 0.163302 0.255625 -0.179011
v -0.040030 0.321604 -0.137930
v -0.013619 0.263730 -0.233061
v -0.121791 0.266251 -0.195791
v -0.146310 0.320097 0.013693
v -0.228072 0.264743 -0.044167
v -0.226180 0.260717 0.070187
v -0.035076 0.311062 0.161452
v -0.114946 0.251681 0.217947
v -0.005603 0.246672 0.251353
v 0.139952 0.306983 0.101149
v 0.169425 0.242593 0.191050
v 0.235112 0.243524 0.097341
v 0.304261 0.092005 -0.151713
v 0.281312 -0.002571 -0.211928
v 0.235514 0.097590 -0.243035
v -0.050752 0.110704 -0.330493
v -0.114297 0.015552 -0.332793
v -0.158926 0.113224 -0.293223
v -0.330892 0.110786 -0.047887
v -0.351950 0.012183 0.006253
v -0.329000 0.106759 0.066467
v -0.149018 0.092139 0.305550
v -0.103220 -0.008023 0.336657
v -0.039675 0.087129 0.338956
v 0.243529 0.080531 0.241382
v 0.288157 -0.017142 0.201812
v 0.309215 0.081461 0.147672
v 0.103220 0.008023 -0.336657
v 0.149018 -0.092139 -0.305550
v 0.039675 -0.087130 -0.338956
v -0.288157 0.017141 -0.201812
v -0.243528 -0.080531 -0.241382
v -0.309214 -0.081462 -0.147672
v -0.281311 0.002571 0.211929
v -0.304261 -0.092005 0.151714
v -0.235513 -0.097590 0.243036
v 0.114297 -0.015552 0.332793
v 0.050752 -0.110704 0.330493
v 0.158926 -0.113225 0.293222
v 0.351950 -0.012183 -0.006252
v 0.330892 -0.110786 0.047887
v 0.329000 -0.106759 -0.066467
v 0.114946 -0.251681 -0.217947
v 0.035076 -0.311061 -0.161453
v 0.005603 -0.246671 -0.251353
v -0.169426 -0.242593 -0.191049
v -0.139952 -0.306983 -0.101149
v -0.235112 -0.243524 -0.097340
v -0.232050 -0.250039 0.087689
v -0.136891 -0.313499 0.083880
v -0.163303 -0.255625 0.179011
v 0.226180 -0.260716 -0.070187
v 0.228072 -0.264743 0.044167
v 0.146311 -0.320097 -0.013693
v 0.013619 -0.263730 0.233061
v 0.040030 -0.321604 0.137931
v 0.121792 -0.266250 0.195791
vn 0.0158 -0.9935 0.1131
vn 0.7097 -0.5933 0.3797
vn -0.1592 -0.9854 0.0596
vn -0.1622 -0.9790 -0.1234
vn 0.0109 -0.9830 -0.1831
vn 0.8115 -0.4410 0.3834
vn -0.1377 -0.4253 0.8945
vn -0.9159 -0.3721 0.1504
vn -0.4478 -0.3550 -0.8207
vn 0.6198 -0.3976 -0.6766
vn 0.7692 -0.3484 0.5357
vn -0.2900 -0.3237 0.9006
vn -0.9631 -0.2690 0.0065
vn -0.3200 -0.2599 -0.9111
vn 0.7507 -0.3090 -0.5840
vn 0.3745 0.5153 0.7709
vn -0.5861 0.5554 0.5899
vn -0.7097 0.5933 -0.3797
vn 0.1744 0.5767 -0.7981
vn 0.8445 0.5284 -0.0870
vn 0.1592 0.9854 -0.0596
vn 0.4216 0.9043 -0.0666
vn 0.6688 0.7394 -0.0765
vn 0.2641 0.9542 -0.1405
vn 0.2342 0.9195 -0.3155
vn 0.5429 0.8238 -0.1632
vn 0.5128 0.7893 -0.3378
vn 0.3558 0.8390 -0.4117
vn 0.3029 0.7692 -0.5627
vn 0.7711 0.6161 -0.1607
vn 0.7408 0.5817 -0.3358
vn 0.6147 0.6663 -0.4220
vn 0.5622 0.5962 -0.5731
vn 0.4048 0.6459 -0.6473
vn 0.3494 0.5687 -0.7447
vn -0.0158 0.9935 -0.1131
vn 0.0595 0.9276 -0.3689
vn 0.1281 0.7772 -0.6161
vn -0.0599 0.9691 -0.2394
vn -0.2353 0.9344 -0.2674
vn 0.0060 0.8550 -0.5185
vn -0.1690 0.8205 -0.5461
vn -0.2884 0.8619 -0.4171
vn -0.4478 0.7906 -0.4177
vn 0.0808 0.6607 -0.7463
vn -0.0947 0.6263 -0.7738
vn -0.2165 0.7044 -0.6760
vn -0.3758 0.6329 -0.6770
vn -0.4955 0.6741 -0.5477
vn -0.6046 0.5948 -0.5297
vn -0.1209 0.9920 0.0369
vn -0.3403 0.9329 -0.1176
vn -0.5527 0.7891 -0.2679
vn -0.2546 0.9663 0.0382
vn -0.3352 0.9220 0.1941
vn -0.4985 0.8589 -0.1173
vn -0.5786 0.8147 0.0383
vn -0.4933 0.8480 0.1938
vn -0.5427 0.7677 0.3409
vn -0.6902 0.6714 -0.2700
vn -0.7704 0.6273 -0.1139
vn -0.7158 0.6973 0.0364
vn -0.7655 0.6168 0.1832
vn -0.6801 0.6499 0.3392
vn -0.6961 0.5643 0.4438
vn -0.0109 0.9830 0.1831
vn -0.2253 0.9130 0.3400
vn -0.4328 0.7588 0.4868
vn -0.0508 0.9498 0.3088
vn 0.0727 0.8994 0.4311
vn -0.2734 0.8301 0.4860
vn -0.1499 0.7799 0.6077
vn 0.0241 0.8165 0.5769
vn 0.1493 0.7321 0.6647
vn -0.4764 0.6334 0.6098
vn -0.3525 0.5833 0.7318
vn -0.1932 0.6549 0.7306
vn -0.0684 0.5702 0.8186
vn 0.1062 0.6067 0.7878
vn 0.2013 0.5193 0.8305
vn 0.1622 0.9790 0.1234
vn 0.2456 0.8954 0.3715
vn 0.3222 0.7281 0.6051
vn 0.2697 0.9423 0.1984
vn 0.4246 0.8979 0.1161
vn 0.3702 0.8084 0.4577
vn 0.5246 0.7641 0.3753
vn 0.5489 0.8109 0.2027
vn 0.6719 0.7330 0.1062
vn 0.4267 0.5992 0.6774
vn 0.5815 0.5551 0.5947
vn 0.6291 0.6357 0.4473
vn 0.7522 0.5575 0.3512
vn 0.7767 0.6042 0.1781
vn 0.8475 0.5220 0.0960
vn 0.9159 0.3721 -0.1504
vn 0.9370 0.1526 -0.3143
vn 0.8774 -0.0931 -0.4707
vn 0.9033 0.3267 -0.2780
vn 0.8122 0.4256 -0.3991
vn 0.8821 0.0813 -0.4640
vn 0.7911 0.1802 -0.5845
vn 0.7575 0.3539 -0.5486
vn 0.6335 0.4401 -0.6363
vn 0.7810 -0.1772 -0.5988
vn 0.6900 -0.0779 -0.7196
vn 0.6950 0.0965 -0.7125
vn 0.5710 0.1824 -0.8004
vn 0.5371 0.3565 -0.7645
vn 0.4208 0.4123 -0.8080
vn 0.1377 0.4253 -0.8945
vn -0.0098 0.2090 -0.9779
vn -0.1749 -0.0383 -0.9838
vn 0.0128 0.3805 -0.9247
vn -0.1314 0.4752 -0.8700
vn -0.1685 0.1361 -0.9763
vn -0.3121 0.2307 -0.9216
vn -0.2899 0.4019 -0.8686
vn -0.4125 0.4817 -0.7732
vn -0.3258 -0.1265 -0.9370
vn -0.4697 -0.0314 -0.8823
vn -0.4628 0.1430 -0.8749
vn -0.5856 0.2224 -0.7795
vn -0.5635 0.3939 -0.7261
vn -0.6413 0.4435 -0.6261
vn -0.8115 0.4410 -0.3834
vn -0.9345 0.2174 -0.2817
vn -0.9892 -0.0387 -0.1411
vn -0.8785 0.3894 -0.2768
vn -0.8720 0.4752 -0.1176
vn -0.9815 0.1356 -0.1348
vn -0.9749 0.2213 0.0239
vn -0.9191 0.3930 0.0290
vn -0.8671 0.4647 0.1795
vn -0.9907 -0.1359 0.0116
vn -0.9841 -0.0497 0.1706
vn -0.9764 0.1246 0.1764
vn -0.9245 0.1960 0.3270
vn -0.8684 0.3680 0.3324
vn -0.7978 0.4120 0.4401
vn -0.6198 0.3976 0.6766
vn -0.5593 0.1663 0.8121
vn -0.4403 -0.0939 0.8929
vn -0.5388 0.3412 0.7703
vn -0.3861 0.4257 0.8184
vn -0.4335 0.0805 0.8976
vn -0.2813 0.1650 0.9453
vn -0.2606 0.3395 0.9038
vn -0.1020 0.4127 0.9052
vn -0.2948 -0.1924 0.9360
vn -0.1423 -0.1075 0.9840
vn -0.1360 0.0669 0.9885
vn 0.0228 0.1397 0.9899
vn 0.0438 0.3145 0.9482
vn 0.1676 0.3615 0.9172
vn 0.4478 0.3550 0.8207
vn 0.5973 0.1263 0.7920
vn 0.7133 -0.1275 0.6892
vn 0.5624 0.3024 0.7695
vn 0.6547 0.3950 0.6444
vn 0.7183 0.0470 0.6941
vn 0.8102 0.1396 0.5693
vn 0.7756 0.3153 0.5468
vn 0.8254 0.3974 0.4009
vn 0.8002 -0.2179 0.5587
vn 0.8923 -0.1249 0.4338
vn 0.8971 0.0495 0.4391
vn 0.9470 0.1312 0.2931
vn 0.9124 0.3074 0.2703
vn 0.9208 0.3617 0.1458
vn 0.2900 0.3237 -0.9006
vn 0.4403 0.0939 -0.8929
vn 0.5593 -0.1663 -0.8121
vn 0.2948 0.1924 -0.9360
vn 0.1423 0.1075 -0.9840
vn 0.4335 -0.0805 -0.8976
vn 0.2813 -0.1650 -0.9453
vn 0.1359 -0.0669 -0.9885
vn -0.0228 -0.1397 -0.9899
vn 0.5388 -0.3412 -0.7703
vn 0.3861 -0.4257 -0.8184
vn 0.2606 -0.3395 -0.9038
vn 0.1020 -0.4127 -0.9052
vn -0.0438 -0.3145 -0.9482
vn -0.1676 -0.3615 -0.9172
vn -0.7692 0.3484 -0.5357
vn -0.7133 0.1275 -0.6892
vn -0.5973 -0.1263 -0.7920
vn -0.8002 0.2179 -0.5587
vn -0.8923 0.1249 -0.4338
vn -0.7183 -0.0470 -0.6941
vn -0.8102 -0.1396 -0.5693
vn -0.8971 -0.0495 -0.4391
vn -0.9470 -0.1312 -0.2931
vn -0.5624 -0.3024 -0.7695
vn -0.6547 -0.3950 -0.6444
vn -0.7756 -0.3153 -0.5468
vn -0.8254 -0.3974 -0.4010
vn -0.9124 -0.3074 -0.2703
vn -0.9208 -0.3617 -0.1458
vn -0.7507 0.3090 0.5840
vn -0.8774 0.0931 0.4707
vn -0.9370 -0.1526 0.3143
vn -0.7810 0.1772 0.5988
vn -0.6900 0.0779 0.7196
vn -0.8821 -0.0813 0.4640
vn -0.7911 -0.1802 0.5845
vn -0.6950 -0.0965 0.7125
vn -0.5710 -0.1824 0.8004
vn -0.9033 -0.3267 0.2780
vn -0.8122 -0.4256 0.3991
vn -0.7575 -0.3539 0.5486
vn -0.6335 -0.4401 0.6363
vn -0.5370 -0.3565 0.7645
vn -0.4208 -0.4123 0.8080
vn 0.3200 0.2599 0.9111
vn 0.1749 0.0383 0.9838
vn 0.0098 -0.2090 0.9779
vn 0.3258 0.1265 0.9370
vn 0.4697 0.0314 0.8823
vn 0.1685 -0.1361 0.9763
vn 0.3121 -0.2307 0.9216
vn 0.4628 -0.1430 0.8748
vn 0.5856 -0.2224 0.7795
vn -0.0128 -0.3805 0.9247
vn 0.1314 -0.4752 0.8700
vn 0.2899 -0.4019 0.8686
vn 0.4125 -0.4817 0.7732
vn 0.5635 -0.3939 0.7261
vn 0.6413 -0.4435 0.6261
vn 0.9631 0.2690 -0.0065
vn 0.9892 0.0387 0.1411
vn 0.9345 -0.2174 0.2817
vn 0.9907 0.1359 -0.0116
vn 0.9841 0.0497 -0.1706
vn 0.9815 -0.1356 0.1348
vn 0.9749 -0.2213 -0.0239
vn 0.9764 -0.1246 -0.1764
vn 0.9245 -0.1960 -0.3270
vn 0.8785 -0.3894 0.2768
vn 0.8720 -0.4752 0.1176
vn 0.9191 -0.3930 -0.0290
vn 0.8671 -0.4647 -0.1795
vn 0.8684 -0.3680 -0.3324
vn 0.7978 -0.4120 -0.4401
vn 0.5861 -0.5554 -0.5899
vn 0.4328 -0.7588 -0.4868
vn 0.2253 -0.9130 -0.3400
vn 0.4764 -0.6334 -0.6098
vn 0.3525 -0.5833 -0.7318
vn 0.2734 -0.8301 -0.4860
vn 0.1499 -0.7799 -0.6077
vn 0.1932 -0.6549 -0.7306
vn 0.0684 -0.5702 -0.8186
vn 0.0508 -0.9498 -0.3088
vn -0.0727 -0.8994 -0.4311
vn -0.0241 -0.8165 -0.5769
vn -0.1493 -0.7321 -0.6646
vn -0.1062 -0.6067 -0.7878
vn -0.2013 -0.5193 -0.8305
vn -0.3745 -0.5153 -0.7709
vn -0.3222 -0.7281 -0.6051
vn -0.2456 -0.8954 -0.3715
vn -0.4267 -0.5992 -0.6774
vn -0.5815 -0.5551 -0.5947
vn -0.3702 -0.8084 -0.4577
vn -0.5246 -0.7641 -0.3753
vn -0.6291 -0.6357 -0.4473
vn -0.7522 -0.5575 -0.3512
vn -0.2697 -0.9423 -0.1984
vn -0.4246 -0.8979 -0.1161
vn -0.5489 -0.8109 -0.2027
vn -0.6719 -0.7330 -0.1062
vn -0.7767 -0.6042 -0.1781
vn -0.8475 -0.5220 -0.0960
vn -0.8445 -0.5284 0.0870
vn -0.6688 -0.7394 0.0765
vn -0.4216 -0.9043 0.0667
vn -0.7711 -0.6161 0.1607
vn -0.7408 -0.5817 0.3358
vn -0.5429 -0.8238 0.1632
vn -0.5128 -0.7893 0.3378
vn -0.6147 -0.6663 0.4220
vn -0.5622 -0.5962 0.5731
vn -0.2641 -0.9542 0.1405
vn -0.2342 -0.9195 0.3155
vn -0.3558 -0.8390 0.4117
vn -0.3029 -0.7692 0.5627
vn -0.4048 -0.6459 0.6473
vn -0.3494 -0.5687 0.7447
vn 0.6961 -0.5643 -0.4438
vn 0.7655 -0.6168 -0.1832
vn 0.7704 -0.6273 0.1139
vn 0.6801 -0.6499 -0.3392
vn 0.5427 -0.7677 -0.3409
vn 0.7158 -0.6973 -0.0364
vn 0.5786 -0.8147 -0.0383
vn 0.4933 -0.8480 -0.1938
vn 0.3352 -0.9220 -0.1941
vn 0.6902 -0.6714 0.2700
vn 0.5527 -0.7891 0.2679
vn 0.4985 -0.8589 0.1173
vn 0.3403 -0.9329 0.1176
vn 0.2546 -0.9663 -0.0382
vn 0.1209 -0.9920 -0.0369
vn -0.1744 -0.5767 0.7981
vn -0.1281 -0.7772 0.6161
vn -0.0595 -0.9276 0.3689
vn -0.0808 -0.6607 0.7463
vn 0.0947 -0.6263 0.7738
vn -0.0060 -0.8550 0.5185
vn 0.1690 -0.8205 0.5461
vn 0.2165 -0.7044 0.6760
vn 0.3758 -0.6329 0.6770
vn 0.0599 -0.9691 0.2394
vn 0.2353 -0.9344 0.2673
vn 0.2884 -0.8619 0.4171
vn 0.4478 -0.7906 0.4177
vn 0.4955 -0.6741 0.5477
vn 0.6046 -0.5948 0.5297
usemtl None
s off
f 1//1 16//1 15//1
f 2//2 18//2 24//2
f 1//3 15//3 30//3
f 1//4 30//4 36//4
f 1//5 36//5 25//5
f 2//6 24//6 45//6
f 3//7 21//7 51//7
f 4//8 33//8 57//8
f 5//9 39//9 63//9
f 6//10 42//10 69//10
f 2//11 45//11 52//11
f 3//12 51//12 58//12
f 4//13 57//13 64//13
f 5//14 63//14 70//14
f 6//15 69//15 46//15
f 7//16 75//16 90//16
f 8//17 78//17 96//17
f 9//18 81//18 99//18
f 10//19 84//19 102//19
f 11//20 87//20 91//20
f 93//21 100//21 12//21
f 92//22 103//22 93//22
f 91//23 104//23 92//23
f 93//24 103//24 100//24
f 103//25 101//25 100//25
f 92//26 104//26 103//26
f 104//27 105//27 103//27
f 103//28 105//28 101//28
f 105//29 102//29 101//29
f 91//30 87//30 104//30
f 87//31 86//31 104//31
f 104//32 86//32 105//32
f 86//33 85//33 105//33
f 105//34 85//34 102//34
f 85//35 10//35 102//35
f 100//36 97//36 12//36
f 101//37 106//37 100//37
f 102//38 107//38 101//38
f 100//39 106//39 97//39
f 106//40 98//40 97//40
f 101//41 107//41 106//41
f 107//42 108//42 106//42
f 106//43 108//43 98//43
f 108//44 99//44 98//44
f 102//45 84//45 107//45
f 84//46 83//46 107//46
f 107//47 83//47 108//47
f 83//48 82//48 108//48
f 108//49 82//49 99//49
f 82//50 9//50 99//50
f 97//51 94//51 12//51
f 98//52 109//52 97//52
f 99//53 110//53 98//53
f 97//54 109//54 94//54
f 109//55 95//55 94//55
f 98//56 110//56 109//56
f 110//57 111//57 109//57
f 109//58 111//58 95//58
f 111//59 96//59 95//59
f 99//60 81//60 110//60
f 81//61 80//61 110//61
f 110//62 80//62 111//62
f 80//63 79//63 111//63
f 111//64 79//64 96//64
f 79//65 8//65 96//65
f 94//66 88//66 12//66
f 95//67 112//67 94//67
f 96//68 113//68 95//68
f 94//69 112//69 88//69
f 112//70 89//70 88//70
f 95//71 113//71 112//71
f 113//72 114//72 112//72
f 112//73 114//73 89//73
f 114//74 90//74 89//74
f 96//75 78//75 113//75
f 78//76 77//76 113//76
f 113//77 77//77 114//77
f 77//78 76//78 114//78
f 114//79 76//79 90//79
f 76//80 7//80 90//80
f 88//81 93//81 12//81
f 89//82 115//82 88//82
f 90//83 116//83 89//83
f 88//84 115//84 93//84
f 115//85 92//85 93//85
f 89//86 116//86 115//86
f 116//87 117//87 115//87
f 115//88 117//88 92//88
f 117//89 91//89 92//89
f 90//90 75//90 116//90
f 75//91 74//91 116//91
f 116//92 74//92 117//92
f 74//93 73//93 117//93
f 117//94 73//94 91//94
f 73//95 11//95 91//95
f 48//96 87//96 11//96
f 47//97 118//97 48//97
f 46//98 119//98 47//98
f 48//99 118//99 87//99
f 118//100 86//100 87//100
f 47//101 119//101 118//101
f 119//102 120//102 118//102
f 118//103 120//103 86//103
f 120//104 85//104 86//104
f 46//105 69//105 119//105
f 69//106 68//106 119//106
f 119//107 68//107 120//107
f 68//108 67//108 120//108
f 120//109 67//109 85//109
f 67//110 10//110 85//110
f 72//111 84//111 10//111
f 71//112 121//112 72//112
f 70//113 122//113 71//113
f 72//114 121//114 84//114
f 121//115 83//115 84//115
f 71//116 122//116 121//116
f 122//117 123//117 121//117
f 121//118 123//118 83//118
f 123//119 82//119 83//119
f 70//120 63//120 122//120
f 63//121 62//121 122//121
f 122//122 62//122 123//122
f 62//123 61//123 123//123
f 123//124 61//124 82//124
f 61//125 9//125 82//125
f 66//126 81//126 9//126
f 65//127 124//127 66//127
f 64//128 125//128 65//128
f 66//129 124//129 81//129
f 124//130 80//130 81//130
f 65//131 125//131 124//131
f 125//132 126//132 124//132
f 124//133 126//133 80//133
f 126//134 79//134 80//134
f 64//135 57//135 125//135
f 57//136 56//136 125//136
f 125//137 56//137 126//137
f 56//138 55//138 126//138
f 126//139 55//139 79//139
f 55//140 8//140 79//140
f 60//141 78//141 8//141
f 59//142 127//142 60//142
f 58//143 128//143 59//143
f 60//144 127//144 78//144
f 127//145 77//145 78//145
f 59//146 128//146 127//146
f 128//147 129//147 127//147
f 127//148 129//148 77//148
f 129//149 76//149 77//149
f 58//150 51//150 128//150
f 51//151 50//151 128//151
f 128//152 50//152 129//152
f 50//153 49//153 129//153
f 129//154 49//154 76//154
f 49//155 7//155 76//155
f 54//156 75//156 7//156
f 53//157 130//157 54//157
f 52//158 131//158 53//158
f 54//159 130//159 75//159
f 130//160 74//160 75//160
f 53//161 131//161 130//161
f 131//162 132//162 130//162
f 130//163 132//163 74//163
f 132//164 73//164 74//164
f 52//165 45//165 131//165
f 45//166 44//166 131//166
f 131//167 44//167 132//167
f 44//168 43//168 132//168
f 132//169 43//169 73//169
f 43//170 11//170 73//170
f 67//171 72//171 10//171
f 68//172 133//172 67//172
f 69//173 134//173 68//173
f 67//174 133//174 72//174
f 133//175 71//175 72//175
f 68//176 134//176 133//176
f 134//177 135//177 133//177
f 133//178 135//178 71//178
f 135//179 70//179 71//179
f 69//180 42//180 134//180
f 42//181 41//181 134//181
f 134//182 41//182 135//182
f 41//183 40//183 135//183
f 135//184 40//184 70//184
f 40//185 5//185 70//185
f 61//186 66//186 9//186
f 62//187 136//187 61//187
f 63//188 137//188 62//188
f 61//189 136//189 66//189
f 136//190 65//190 66//190
f 62//191 137//191 136//191
f 137//192 138//192 136//192
f 136//193 138//193 65//193
f 138//194 64//194 65//194
f 63//195 39//195 137//195
f 39//196 38//196 137//196
f 137//197 38//197 138//197
f 38//198 37//198 138//198
f 138//199 37//199 64//199
f 37//200 4//200 64//200
f 55//201 60//201 8//201
f 56//202 139//202 55//202
f 57//203 140//203 56//203
f 55//204 139//204 60//204
f 139//205 59//205 60//205
f 56//206 140//206 139//206
f 140//207 141//207 139//207
f 139//208 141//208 59//208
f 141//209 58//209 59//209
f 57//210 33//210 140//210
f 33//211 32//211 140//211
f 140//212 32//212 141//212
f 32//213 31//213 141//213
f 141//214 31//214 58//214
f 31//215 3//215 58//215
f 49//216 54//216 7//216
f 50//217 142//217 49//217
f 51//218 143//218 50//218
f 49//219 142//219 54//219
f 142//220 53//220 54//220
f 50//221 143//221 142//221
f 143//222 144//222 142//222
f 142//223 144//223 53//223
f 144//224 52//224 53//224
f 51//225 21//225 143//225
f 21//226 20//226 143//226
f 143//227 20//227 144//227
f 20//228 19//228 144//228
f 144//229 19//229 52//229
f 19//230 2//230 52//230
f 43//231 48//231 11//231
f 44//232 145//232 43//232
f 45//233 146//233 44//233
f 43//234 145//234 48//234
f 145//235 47//235 48//235
f 44//236 146//236 145//236
f 146//237 147//237 145//237
f 145//238 147//238 47//238
f 147//239 46//239 47//239
f 45//240 24//240 146//240
f 24//241 23//241 146//241
f 146//242 23//242 147//242
f 23//243 22//243 147//243
f 147//244 22//244 46//244
f 22//245 6//245 46//245
f 27//246 42//246 6//246
f 26//247 148//247 27//247
f 25//248 149//248 26//248
f 27//249 148//249 42//249
f 148//250 41//250 42//250
f 26//251 149//251 148//251
f 149//252 150//252 148//252
f 148//253 150//253 41//253
f 150//254 40//254 41//254
f 25//255 36//255 149//255
f 36//256 35//256 149//256
f 149//257 35//257 150//257
f 35//258 34//258 150//258
f 150//259 34//259 40//259
f 34//260 5//260 40//260
f 34//261 39//261 5//261
f 35//262 151//262 34//262
f 36//263 152//263 35//263
f 34//264 151//264 39//264
f 151//265 38//265 39//265
f 35//266 152//266 151//266
f 152//267 153//267 151//267
f 151//268 153//268 38//268
f 153//269 37//269 38//269
f 36//270 30//270 152//270
f 30//271 29//271 152//271
f 152//272 29//272 153//272
f 29//273 28//273 153//273
f 153//274 28//274 37//274
f 28//275 4//275 37//275
f 28//276 33//276 4//276
f 29//277 154//277 28//277
f 30//278 155//278 29//278
f 28//279 154//279 33//279
f 154//280 32//280 33//280
f 29//281 155//281 154//281
f 155//282 156//282 154//282
f 154//283 156//283 32//283
f 156//284 31//284 32//284
f 30//285 15//285 155//285
f 15//286 14//286 155//286
f 155//287 14//287 156//287
f 14//288 13//288 156//288
f 156//289 13//289 31//289
f 13//290 3//290 31//290
f 22//291 27//291 6//291
f 23//292 157//292 22//292
f 24//293 158//293 23//293
f 22//294 157//294 27//294
f 157//295 26//295 27//295
f 23//296 158//296 157//296
f 158//297 159//297 157//297
f 157//298 159//298 26//298
f 159//299 25//299 26//299
f 24//300 18//300 158//300
f 18//301 17//301 158//301
f 158//302 17//302 159//302
f 17//303 16//303 159//303
f 159//304 16//304 25//304
f 16//305 1//305 25//305
f 13//306 21//306 3//306
f 14//307 160//307 13//307
f 15//308 161//308 14//308
f 13//309 160//309 21//309
f 160//310 20//310 21//310
f 14//311 161//311 160//311
f 161//312 162//312 160//312
f 160//313 162//313 20//313
f 162//314 19//314 20//314
f 15//315 16//315 161//315
f 16//316 17//316 161//316
f 161//317 17//317 162//317
f 17//318 18//318 162//318
f 162//319 18//319 19//319
f 18//320 2//320 19//320
